<svg xmlns="http://www.w3.org/2000/svg" viewBox="0 0 13 18"><path d="M3.4 15.8c0 .6.2 1 .5 1.2.3.3.7.4 1.2.4.8 0 1.5-.3 2.2-1 .4-.4 1-1.2 1.8-2.3l-.5-.3c-.3.5-.6.9-1 1.3s-.7.6-.9.6c-.1 0-.2 0-.3-.1-.1-.1-.1-.2-.1-.3 0-.2.1-.5.2-1.1.1-.2.2-.6.3-1.2l1.9-6.8-1 .2c-.4.1-1 .2-1.8.3-.9 0-1.5 0-2 .1v.6c.5 0 .9.1 1.1.2.2.1.3.3.3.6v.4L3.8 14c-.1.4-.2.7-.2 1-.1.3-.2.6-.2.8zM8.1.8c-.4 0-.8.2-1.1.5-.4.2-.5.6-.5 1.1s.2.8.5 1.1c.2.3.6.5 1.1.5s.8-.2 1.1-.5c.3-.3.5-.7.5-1.1s-.2-.9-.5-1.2C8.9.9 8.5.8 8.1.8z"/></svg>